#Comment line ignore any data following # character 
#Hierarchical Translation and Rotation (.htr) file 
[Header]	
#Header keywords are followed by a single value 
FileType HTR		#Single word string
DataType HTRS		#Translation followed by rotation and scale data
FileVersion 1		#integer
NumSegments 84		#integer
NumFrames 2		#integer
DataFrameRate 30		#integer, data frame rate in this file
EulerRotationOrder ZYX
CalibrationUnits mm
RotationUnits Degrees
GlobalAxisofGravity Y
BoneLengthAxis Y
ScaleFactor 1.00
[SegmentNames&Hierarchy]
#CHILD	PARENT
MASTER GLOBAL
root MASTER
chest root
L_mid_tent01 root
R_mid_tent01 root
spine01 root
Bip01_Neck chest
L_humerus chest
R_humerus chest
weapon_bone chest
Bip01_Head Bip01_Neck
eye_left_bone Bip01_Head
eye_right_bone Bip01_Head
L_forearm L_humerus
L_front_hand L_forearm
L_weapon_bone L_forearm
L_front_hand01_01 L_front_hand
L_front_hand02_01 L_front_hand
L_front_hand03_01 L_front_hand
L_front_hand01_02 L_front_hand01_01
L_front_hand02_02 L_front_hand02_01
L_front_hand03_02 L_front_hand03_01
R_forearm R_humerus
R_front_hand R_forearm
R_weapon_bone R_forearm
R_front_hand01_01 R_front_hand
R_front_hand02_01 R_front_hand
R_front_hand03_01 R_front_hand
R_front_hand01_02 R_front_hand01_01
R_front_hand02_02 R_front_hand02_01
R_front_hand03_02 R_front_hand03_01
null_rope01_connect L_mid_tent01
Rope1_Seg01 null_rope01_connect
Rope1_Seg02 Rope1_Seg01
Rope1_Seg03 Rope1_Seg02
Rope1_Seg04 Rope1_Seg03
Rope1_Seg05 Rope1_Seg04
Rope1_Seg06 Rope1_Seg05
Rope1_Seg07 Rope1_Seg06
Rope1_Seg09 Rope1_Seg07
L_mid_hand01 Rope1_Seg09
L_mid_hand02 Rope1_Seg09
L_mid_hand03 Rope1_Seg09
null_rope02_connect R_mid_tent01
Rope2_Seg01 null_rope02_connect
Rope2_Seg02 Rope2_Seg01
Rope2_Seg03 Rope2_Seg02
Rope2_Seg04 Rope2_Seg03
Rope2_Seg05 Rope2_Seg04
Rope2_Seg06 Rope2_Seg05
Rope2_Seg07 Rope2_Seg06
Rope2_Seg09 Rope2_Seg07
R_mid_hand01 Rope2_Seg09
R_mid_hand02 Rope2_Seg09
R_mid_hand03 Rope2_Seg09
spine02 spine01
spine03 spine02
pelvis spine03
null_rope03_connect pelvis
null_rope04_connect pelvis
Rope3_Seg01 null_rope03_connect
Rope3_Seg02 Rope3_Seg01
Rope3_Seg03 Rope3_Seg02
Rope3_Seg04 Rope3_Seg03
Rope3_Seg05 Rope3_Seg04
Rope3_Seg06 Rope3_Seg05
Rope3_Seg07 Rope3_Seg06
Rope3_Seg08 Rope3_Seg07
Rope3_Seg09 Rope3_Seg08
R_rear_hand01 Rope3_Seg09
R_rear_hand02 Rope3_Seg09
R_rear_hand03 Rope3_Seg09
Rope4_Seg01 null_rope04_connect
Rope4_Seg02 Rope4_Seg01
Rope4_Seg03 Rope4_Seg02
Rope4_Seg04 Rope4_Seg03
Rope4_Seg05 Rope4_Seg04
Rope4_Seg06 Rope4_Seg05
Rope4_Seg07 Rope4_Seg06
Rope4_Seg08 Rope4_Seg07
Rope4_Seg09 Rope4_Seg08
L_rear_hand01 Rope4_Seg09
L_rear_hand02 Rope4_Seg09
L_rear_hand03 Rope4_Seg09
[BasePosition]
#SegmentName Tx, Ty, Tz, Rx, Ry, Rz, BoneLength
MASTER 0.000000 0.000000 0.000000 -90.000000 0.000000 0.000000 10.000000 
root 0.000000 0.000000 0.000000 0.000000 0.000000 0.000000 10.000000 
chest 0.000000 0.000000 0.000000 0.000000 0.000000 0.000000 10.000000 
L_mid_tent01 0.000000 0.000000 0.000000 0.000000 0.000000 0.000000 10.000000 
R_mid_tent01 0.000000 0.000000 0.000000 0.000000 0.000000 0.000000 10.000000 
spine01 0.000000 0.000000 0.000000 0.000000 0.000000 0.000000 10.000000 
Bip01_Neck 0.000000 0.000000 0.000000 0.000000 0.000000 0.000000 10.000000 
L_humerus 0.000000 0.000000 0.000000 0.000000 0.000000 0.000000 10.000000 
R_humerus 0.000000 0.000000 0.000000 0.000000 0.000000 0.000000 10.000000 
weapon_bone 0.000000 0.000000 0.000000 0.000000 0.000000 0.000000 10.000000 
Bip01_Head 0.000000 0.000000 0.000000 0.000000 0.000000 0.000000 10.000000 
eye_left_bone 0.000000 0.000000 0.000000 0.000000 0.000000 0.000000 10.000000 
eye_right_bone 0.000000 0.000000 0.000000 0.000000 0.000000 0.000000 10.000000 
L_forearm 0.000000 0.000000 0.000000 0.000000 0.000000 0.000000 10.000000 
L_front_hand 0.000000 0.000000 0.000000 0.000000 0.000000 0.000000 10.000000 
L_weapon_bone 0.000000 0.000000 0.000000 0.000000 0.000000 0.000000 10.000000 
L_front_hand01_01 0.000000 0.000000 0.000000 0.000000 0.000000 0.000000 10.000000 
L_front_hand02_01 0.000000 0.000000 0.000000 0.000000 0.000000 0.000000 10.000000 
L_front_hand03_01 0.000000 0.000000 0.000000 0.000000 0.000000 0.000000 10.000000 
L_front_hand01_02 0.000000 0.000000 0.000000 0.000000 0.000000 0.000000 10.000000 
L_front_hand02_02 0.000000 0.000000 0.000000 0.000000 0.000000 0.000000 10.000000 
L_front_hand03_02 0.000000 0.000000 0.000000 0.000000 0.000000 0.000000 10.000000 
R_forearm 0.000000 0.000000 0.000000 0.000000 0.000000 0.000000 10.000000 
R_front_hand 0.000000 0.000000 0.000000 0.000000 0.000000 0.000000 10.000000 
R_weapon_bone 0.000000 0.000000 0.000000 0.000000 0.000000 0.000000 10.000000 
R_front_hand01_01 0.000000 0.000000 0.000000 0.000000 0.000000 0.000000 10.000000 
R_front_hand02_01 0.000000 0.000000 0.000000 0.000000 0.000000 0.000000 10.000000 
R_front_hand03_01 0.000000 0.000000 0.000000 0.000000 0.000000 0.000000 10.000000 
R_front_hand01_02 0.000000 0.000000 0.000000 0.000000 0.000000 0.000000 10.000000 
R_front_hand02_02 0.000000 0.000000 0.000000 0.000000 0.000000 0.000000 10.000000 
R_front_hand03_02 0.000000 0.000000 0.000000 0.000000 0.000000 0.000000 10.000000 
null_rope01_connect 0.000000 0.000000 0.000000 0.000000 0.000000 0.000000 10.000000 
Rope1_Seg01 0.000000 0.000000 0.000000 0.000000 0.000000 0.000000 10.000000 
Rope1_Seg02 0.000000 0.000000 0.000000 0.000000 0.000000 0.000000 10.000000 
Rope1_Seg03 0.000000 0.000000 0.000000 0.000000 0.000000 0.000000 10.000000 
Rope1_Seg04 0.000000 0.000000 0.000000 0.000000 0.000000 0.000000 10.000000 
Rope1_Seg05 0.000000 0.000000 0.000000 0.000000 0.000000 0.000000 10.000000 
Rope1_Seg06 0.000000 0.000000 0.000000 0.000000 0.000000 0.000000 10.000000 
Rope1_Seg07 0.000000 0.000000 0.000000 0.000000 0.000000 0.000000 10.000000 
Rope1_Seg09 0.000000 0.000000 0.000000 0.000000 0.000000 0.000000 10.000000 
L_mid_hand01 0.000000 0.000000 0.000000 0.000000 0.000000 0.000000 10.000000 
L_mid_hand02 0.000000 0.000000 0.000000 0.000000 0.000000 0.000000 10.000000 
L_mid_hand03 0.000000 0.000000 0.000000 0.000000 0.000000 0.000000 10.000000 
null_rope02_connect 0.000000 0.000000 0.000000 0.000000 0.000000 0.000000 10.000000 
Rope2_Seg01 0.000000 0.000000 0.000000 0.000000 0.000000 0.000000 10.000000 
Rope2_Seg02 0.000000 0.000000 0.000000 0.000000 0.000000 0.000000 10.000000 
Rope2_Seg03 0.000000 0.000000 0.000000 0.000000 0.000000 0.000000 10.000000 
Rope2_Seg04 0.000000 0.000000 0.000000 0.000000 0.000000 0.000000 10.000000 
Rope2_Seg05 0.000000 0.000000 0.000000 0.000000 0.000000 0.000000 10.000000 
Rope2_Seg06 0.000000 0.000000 0.000000 0.000000 0.000000 0.000000 10.000000 
Rope2_Seg07 0.000000 0.000000 0.000000 0.000000 0.000000 0.000000 10.000000 
Rope2_Seg09 0.000000 0.000000 0.000000 0.000000 0.000000 0.000000 10.000000 
R_mid_hand01 0.000000 0.000000 0.000000 0.000000 0.000000 0.000000 10.000000 
R_mid_hand02 0.000000 0.000000 0.000000 0.000000 0.000000 0.000000 10.000000 
R_mid_hand03 0.000000 0.000000 0.000000 0.000000 0.000000 0.000000 10.000000 
spine02 0.000000 0.000000 0.000000 0.000000 0.000000 0.000000 10.000000 
spine03 0.000000 0.000000 0.000000 0.000000 0.000000 0.000000 10.000000 
pelvis 0.000000 0.000000 0.000000 0.000000 0.000000 0.000000 10.000000 
null_rope03_connect 0.000000 0.000000 0.000000 0.000000 0.000000 0.000000 10.000000 
null_rope04_connect 0.000000 0.000000 0.000000 0.000000 0.000000 0.000000 10.000000 
Rope3_Seg01 0.000000 0.000000 0.000000 0.000000 0.000000 0.000000 10.000000 
Rope3_Seg02 0.000000 0.000000 0.000000 0.000000 0.000000 0.000000 10.000000 
Rope3_Seg03 0.000000 0.000000 0.000000 0.000000 0.000000 0.000000 10.000000 
Rope3_Seg04 0.000000 0.000000 0.000000 0.000000 0.000000 0.000000 10.000000 
Rope3_Seg05 0.000000 0.000000 0.000000 0.000000 0.000000 0.000000 10.000000 
Rope3_Seg06 0.000000 0.000000 0.000000 0.000000 0.000000 0.000000 10.000000 
Rope3_Seg07 0.000000 0.000000 0.000000 0.000000 0.000000 0.000000 10.000000 
Rope3_Seg08 0.000000 0.000000 0.000000 0.000000 0.000000 0.000000 10.000000 
Rope3_Seg09 0.000000 0.000000 0.000000 0.000000 0.000000 0.000000 10.000000 
R_rear_hand01 0.000000 0.000000 0.000000 0.000000 0.000000 0.000000 10.000000 
R_rear_hand02 0.000000 0.000000 0.000000 0.000000 0.000000 0.000000 10.000000 
R_rear_hand03 0.000000 0.000000 0.000000 0.000000 0.000000 0.000000 10.000000 
Rope4_Seg01 0.000000 0.000000 0.000000 0.000000 0.000000 0.000000 10.000000 
Rope4_Seg02 0.000000 0.000000 0.000000 0.000000 0.000000 0.000000 10.000000 
Rope4_Seg03 0.000000 0.000000 0.000000 0.000000 0.000000 0.000000 10.000000 
Rope4_Seg04 0.000000 0.000000 0.000000 0.000000 0.000000 0.000000 10.000000 
Rope4_Seg05 0.000000 0.000000 0.000000 0.000000 0.000000 0.000000 10.000000 
Rope4_Seg06 0.000000 0.000000 0.000000 0.000000 0.000000 0.000000 10.000000 
Rope4_Seg07 0.000000 0.000000 0.000000 0.000000 0.000000 0.000000 10.000000 
Rope4_Seg08 0.000000 0.000000 0.000000 0.000000 0.000000 0.000000 10.000000 
Rope4_Seg09 0.000000 0.000000 0.000000 0.000000 0.000000 0.000000 10.000000 
L_rear_hand01 0.000000 0.000000 0.000000 0.000000 0.000000 0.000000 10.000000 
L_rear_hand02 0.000000 0.000000 0.000000 0.000000 0.000000 0.000000 10.000000 
L_rear_hand03 0.000000 0.000000 0.000000 0.000000 0.000000 0.000000 10.000000 
#Beginning of Data. Separated by tabs
#Fr	Tx	Ty	Tz	Rx	Ry	Rz	SF
[MASTER]
30 0.000000 0.000000 0.000000 0.001660 0.001660 0.001660 0.000000
31 0.000000 0.000000 0.000000 0.001660 0.001660 0.001660 0.000000
[root]
30 -27.924717 -56.735455 1501.400635 -78.216667 -39.024372 -87.973343 1502.731689
31 -27.884632 -56.740528 1501.395752 -78.216667 -39.024372 -87.973343 1502.726196
[chest]
30 -84.512650 -34.090519 0.000000 -2.594532 -0.201363 179.701126 91.129311
31 -84.512650 -34.090519 0.000000 -2.594532 -0.201363 179.701126 91.129311
[L_mid_tent01]
30 27.299192 22.178961 -249.918701 3.862628 36.229202 81.347610 252.381683
31 27.299194 22.178955 -249.918701 3.862628 36.229202 81.347610 252.381683
[R_mid_tent01]
30 23.228794 24.509907 226.238495 160.432037 -47.061241 87.899765 228.744751
31 23.228794 24.509907 226.238495 160.432037 -47.061249 87.899780 228.744751
[spine01]
30 -0.361383 -0.195265 0.000000 0.002062 0.001122 32.879829 0.410763
31 -0.361383 -0.195265 0.000000 0.002062 0.001122 32.879829 0.410763
[Bip01_Neck]
30 165.484543 71.581718 0.000119 176.643677 -1.657967 43.431911 180.302734
31 165.484543 71.581718 0.000119 176.643677 -1.657967 43.431919 180.302734
[L_humerus]
30 -13.983130 -135.272980 -120.471481 156.317398 70.210068 -112.010254 181.680161
31 -13.983130 -135.272980 -120.471481 156.317398 70.210068 -112.010254 181.680161
[R_humerus]
30 -13.983309 -135.273102 125.287651 -172.382263 -66.903831 -92.553993 184.909012
31 -13.983309 -135.273102 125.287651 -172.382263 -66.903854 -92.554031 184.909012
[weapon_bone]
30 235.964890 -300.705902 0.000000 0.000000 -89.951546 -128.212341 382.234833
31 235.964890 -300.705902 0.000000 0.000000 -89.951546 -128.212341 382.234833
[Bip01_Head]
30 213.444199 185.715408 11.776925 9.067745 3.281933 -43.888077 283.173676
31 213.444199 185.715408 11.776924 9.067746 3.281934 -43.888084 283.173676
[eye_left_bone]
30 -24.626970 125.451866 -64.772606 0.000000 -90.000000 -99.840431 143.318359
31 -24.626970 125.451866 -64.772606 0.000000 -90.000000 -99.840431 143.318359
[eye_right_bone]
30 -24.626970 125.451866 64.327362 0.000000 -89.965736 80.156380 143.117676
31 -24.626970 125.451866 64.327362 0.000000 -90.000000 80.156387 143.117676
[L_forearm]
30 322.776093 0.000000 -0.000119 0.000396 -0.002314 -109.419975 322.776093
31 322.776093 0.000000 -0.000119 0.000396 -0.002314 -109.419975 322.776093
[L_front_hand]
30 241.149185 -0.042021 -3.300071 -178.667953 -1.835447 -27.422350 241.171753
31 241.149185 -0.042021 -3.300071 -178.667953 -1.835448 -27.422352 241.171753
[L_weapon_bone]
30 156.183838 0.000000 0.000000 0.000014 0.000007 0.000001 156.183838
31 156.183838 0.000000 0.000000 0.000014 0.000007 0.000001 156.183838
[L_front_hand01_01]
30 86.095154 20.947098 -0.655860 -0.360010 -0.482183 74.749420 88.609184
31 86.095154 20.947098 -0.655860 -0.365371 -0.478091 75.092117 88.609184
[L_front_hand02_01]
30 86.935165 -11.437475 24.513514 153.427811 -59.611076 -60.242897 91.046425
31 86.935165 -11.437475 24.513514 153.946487 -59.758575 -60.843483 91.046425
[L_front_hand03_01]
30 86.637497 -14.123976 -20.424902 -153.017059 57.836376 -61.645977 90.126129
31 86.637497 -14.123976 -20.424902 -153.504349 57.989811 -62.217361 90.126129
[L_front_hand01_02]
30 71.020905 -0.000179 0.000030 0.000327 -0.002324 -106.003113 71.020905
31 71.020905 -0.000179 0.000030 0.000328 -0.002324 -106.058144 71.020905
[L_front_hand02_02]
30 71.020927 -0.000119 0.000060 0.000327 -0.002324 -106.003113 71.020927
31 71.020927 -0.000119 0.000060 0.000328 -0.002324 -106.058144 71.020927
[L_front_hand03_02]
30 71.020905 -0.000060 0.000060 0.000327 -0.002324 -106.003113 71.020905
31 71.020905 -0.000060 0.000060 0.000328 -0.002324 -106.058144 71.020905
[R_forearm]
30 322.776428 -0.000060 0.000030 0.202103 0.065158 -108.062805 322.776428
31 322.776428 -0.000060 0.000030 0.202103 0.065158 -108.062820 322.776428
[R_front_hand]
30 238.847015 -0.006795 2.210259 -2.635298 -10.645461 -26.312506 238.857239
31 238.847015 -0.006795 2.210259 -2.635299 -10.645463 -26.312508 238.857239
[R_weapon_bone]
30 155.664093 0.002503 -0.000030 0.003487 0.001180 -90.988930 155.664078
31 155.664093 0.002503 -0.000030 0.003487 0.001180 -90.988930 155.664078
[R_front_hand01_01]
30 87.624611 14.231146 22.918642 -154.633484 -59.950619 61.746037 91.683487
31 87.624611 14.231146 22.918642 -154.633499 -59.950634 61.746063 91.683487
[R_front_hand02_01]
30 89.356956 14.367283 -19.491137 154.602661 58.302849 63.744389 92.579636
31 89.356956 14.367283 -19.491137 154.602676 58.302864 63.744400 92.579636
[R_front_hand03_01]
30 87.286232 -22.307278 -0.143439 0.162155 -0.423168 -75.767921 90.091743
31 87.286232 -22.307278 -0.143439 0.162155 -0.423168 -75.767921 90.091743
[R_front_hand01_02]
30 71.020905 0.000060 0.000119 0.002323 -0.000334 106.381714 71.020905
31 71.020905 0.000060 0.000119 0.002323 -0.000334 106.381729 71.020905
[R_front_hand02_02]
30 71.020844 -0.000030 -0.000119 0.002323 -0.000334 106.381714 71.020836
31 71.020844 -0.000030 -0.000119 0.002323 -0.000334 106.381729 71.020836
[R_front_hand03_02]
30 71.020905 0.000000 0.000030 0.002323 -0.000334 106.381714 71.020905
31 71.020905 0.000000 0.000030 0.002323 -0.000334 106.381729 71.020905
[null_rope01_connect]
30 328.732483 0.000000 -0.000238 -121.867149 -66.548218 170.046249 328.732483
31 328.732483 0.000000 -0.000238 -121.867149 -66.548218 170.046249 328.732483
[Rope1_Seg01]
30 -0.000020 0.000001 0.000005 111.741341 9.050186 -161.763245 0.000020
31 -0.000019 0.000000 0.000000 112.128540 9.077196 -162.927612 0.000019
[Rope1_Seg02]
30 139.999863 -0.000179 0.000000 18.384611 -15.351479 -9.749597 139.999863
31 139.999863 -0.000179 0.000000 17.083479 -15.437889 -8.929381 139.999863
[Rope1_Seg03]
30 139.999924 0.000060 -0.000060 21.186171 -27.600101 -12.109824 139.999924
31 139.999924 0.000060 -0.000060 19.540071 -27.186068 -11.228586 139.999924
[Rope1_Seg04]
30 139.999924 -0.000060 -0.000119 3.136023 -31.289171 5.718648 139.999924
31 139.999924 -0.000060 -0.000119 2.675947 -31.941097 5.825679 139.999924
[Rope1_Seg05]
30 139.999832 0.000119 -0.000060 -6.304222 -25.132994 18.978613 139.999832
31 139.999832 0.000119 -0.000060 -6.543500 -25.289822 18.078671 139.999832
[Rope1_Seg06]
30 139.999954 0.000119 -0.000060 -3.531833 -10.442082 5.792058 139.999954
31 139.999954 0.000119 -0.000060 -3.667655 -10.129589 5.166716 139.999954
[Rope1_Seg07]
30 139.999985 0.000060 0.000000 -2.365067 -5.215472 2.382445 139.999985
31 139.999985 0.000060 0.000000 -2.444172 -5.085736 2.110806 139.999985
[Rope1_Seg09]
30 121.602913 0.000119 -0.000089 -89.793175 -1.359789 0.847147 121.602913
31 121.602913 0.000119 -0.000089 -89.793175 -1.359789 0.847147 121.602913
[L_mid_hand01]
30 103.859421 1.038730 8.195221 130.544373 -67.584534 -38.866943 104.187431
31 103.859421 1.038730 8.195221 130.544373 -67.584534 -38.866943 104.187431
[L_mid_hand02]
30 105.572853 -4.139662 -10.864139 -168.923172 43.409309 -73.498886 106.211075
31 105.572853 -4.139662 -10.864139 -168.923172 43.409321 -73.498909 106.211075
[L_mid_hand03]
30 104.641464 17.579376 -3.913581 -6.012627 17.808178 74.893677 106.179977
31 104.641464 17.579376 -3.913581 -6.012628 17.808178 74.893677 106.179977
[null_rope02_connect]
30 328.732849 0.000179 -0.000119 -116.101486 27.529917 12.015828 328.732849
31 328.732849 0.000179 -0.000119 -116.101486 27.529922 12.015831 328.732849
[Rope2_Seg01]
30 -0.000145 0.000089 0.000000 -45.251232 8.403948 -6.771421 0.000170
31 -0.000153 0.000088 0.000000 -44.215313 7.587375 -6.780135 0.000176
[Rope2_Seg02]
30 139.999741 -0.000060 -0.000119 -13.730163 -0.954801 13.954178 139.999756
31 139.999741 -0.000060 -0.000119 -13.901192 -0.615945 14.052073 139.999756
[Rope2_Seg03]
30 140.000107 0.000030 0.000000 -12.445394 -8.353476 21.622480 140.000107
31 140.000107 0.000030 0.000000 -12.790839 -7.869308 22.020313 140.000107
[Rope2_Seg04]
30 139.999802 0.000000 -0.000060 -5.909224 -13.269196 19.813177 139.999802
31 139.999802 0.000000 -0.000060 -6.063742 -13.064015 20.176556 139.999802
[Rope2_Seg05]
30 139.999985 -0.000060 0.000119 -0.336234 -1.428670 29.318508 139.999985
31 139.999985 -0.000060 0.000119 -0.486332 -1.329922 27.875336 139.999985
[Rope2_Seg06]
30 139.999893 -0.000030 -0.000119 6.506975 0.550071 30.530214 139.999893
31 139.999893 -0.000030 -0.000119 6.034129 0.741362 30.213110 139.999893
[Rope2_Seg07]
30 139.999893 0.000060 -0.000060 4.816497 0.741409 13.882454 139.999893
31 139.999893 0.000060 -0.000060 4.741436 0.696879 14.343556 139.999893
[Rope2_Seg09]
30 121.338966 0.000089 -0.000060 33.793236 -1.359788 -0.847141 121.338966
31 121.338966 0.000089 -0.000060 33.793236 -1.359788 -0.847141 121.338966
[R_mid_hand01]
30 104.680779 11.144459 -10.335981 -16.212055 45.237240 70.462852 105.778534
31 104.680779 11.144459 -10.335981 -16.212065 45.237255 70.462868 105.778534
[R_mid_hand02]
30 104.070427 2.443552 8.231699 49.067368 -67.749771 39.286453 104.424065
31 104.070427 2.443552 8.231699 49.067390 -67.749802 39.286472 104.424065
[R_mid_hand03]
30 106.028137 -11.221827 -5.996406 -177.101105 15.551026 -76.585571 106.788818
31 106.028137 -11.221827 -5.996406 -177.101105 15.551029 -76.585594 106.788818
[spine02]
30 129.756927 0.001550 0.000119 0.360061 -4.044797 -12.915058 129.756927
31 129.756927 0.001550 0.000119 0.360061 -4.044798 -12.915060 129.756927
[spine03]
30 78.614113 0.081629 -4.898987 1.896495 3.831288 16.473045 78.766655
31 78.614113 0.081635 -4.898987 1.896495 3.831288 16.473051 78.766655
[pelvis]
30 169.435242 0.051022 0.000000 -0.060465 -0.180225 14.087930 169.435257
31 169.435242 0.051022 0.000000 -0.060465 -0.180225 14.087932 169.435257
[null_rope03_connect]
30 -1.257226 -2.466202 137.391083 43.766438 -75.818787 34.520519 137.418976
31 -1.257226 -2.466202 137.391083 43.766449 -75.818817 34.520538 137.418976
[null_rope04_connect]
30 -1.259640 -2.480268 -137.844437 43.766438 -75.818787 34.520519 137.872513
31 -1.259640 -2.480268 -137.844437 43.766449 -75.818817 34.520538 137.872513
[Rope3_Seg01]
30 0.000010 0.000001 -0.000005 103.457161 -79.487038 30.685230 0.000011
31 0.000010 0.000000 0.000000 111.116913 -79.958527 23.569038 0.000010
[Rope3_Seg02]
30 139.999924 -0.000119 0.000060 5.356697 -11.666977 -3.328326 139.999924
31 139.999924 -0.000119 0.000060 4.642671 -10.731154 -4.203690 139.999924
[Rope3_Seg03]
30 139.999924 -0.000119 0.000119 10.956018 -15.549973 -2.306010 139.999924
31 139.999924 -0.000119 0.000119 9.010489 -13.482657 -3.518467 139.999924
[Rope3_Seg04]
30 139.999924 0.000119 0.000000 15.678453 -15.387228 4.356408 139.999924
31 139.999924 0.000119 0.000000 13.324656 -13.144278 2.013600 139.999924
[Rope3_Seg05]
30 139.999924 -0.000238 0.000060 18.456585 -16.464977 -1.532432 139.999924
31 139.999924 -0.000238 0.000060 16.145475 -14.295408 -3.828284 139.999924
[Rope3_Seg06]
30 139.999893 -0.000119 -0.000060 47.139919 -26.797176 -3.055640 139.999893
31 139.999893 -0.000119 -0.000060 62.481964 -27.269308 -8.989241 139.999893
[Rope3_Seg07]
30 139.999771 0.000060 -0.000119 27.010427 -12.296179 12.932039 139.999771
31 139.999771 0.000060 -0.000119 36.421570 -14.075617 15.902655 139.999771
[Rope3_Seg08]
30 139.999985 -0.000060 0.000000 8.791859 -2.313632 8.872666 139.999985
31 139.999985 -0.000060 0.000000 8.506747 -0.552609 10.703489 139.999985
[Rope3_Seg09]
30 90.185997 -0.000179 -0.000060 89.793228 -1.359877 -0.847183 90.185997
31 90.185997 -0.000179 -0.000060 89.793228 -1.359877 -0.847183 90.185997
[R_rear_hand01]
30 103.366196 -6.073594 -10.757982 -177.714203 24.565960 -73.910950 104.101845
31 103.366196 -6.073594 -10.757982 -177.714203 24.565968 -73.910957 104.101845
[R_rear_hand02]
30 100.509819 12.039542 -7.992327 -12.874829 36.868488 72.167213 101.543350
31 100.509819 12.039542 -7.992327 -12.874833 36.868492 72.167229 101.543350
[R_rear_hand03]
30 101.539970 5.215704 5.435467 71.484581 -71.816628 21.513813 101.819031
31 101.539970 5.215704 5.435467 71.484634 -71.816643 21.513817 101.819031
[Rope4_Seg01]
30 -0.000018 0.000003 -0.000226 69.410225 -42.253815 -127.095154 0.000227
31 -0.000019 0.000000 -0.000229 66.286369 -39.729607 -124.462852 0.000230
[Rope4_Seg02]
30 139.999985 0.000060 0.000119 -6.316265 -9.925285 -15.039155 139.999985
31 139.999985 0.000060 0.000119 -3.687016 -13.228959 -13.538079 139.999985
[Rope4_Seg03]
30 139.999924 0.000000 -0.000238 -27.696289 -11.166206 -25.537186 139.999924
31 139.999924 0.000000 -0.000238 -21.677210 -16.510038 -21.408312 139.999924
[Rope4_Seg04]
30 139.999985 0.000000 0.000119 -39.472984 2.752955 -21.871906 139.999985
31 139.999985 0.000000 0.000119 -51.177063 -4.486971 -19.501760 139.999985
[Rope4_Seg05]
30 139.999802 -0.000060 -0.000119 -33.177502 12.545152 -20.212519 139.999802
31 139.999802 -0.000060 -0.000119 -42.578510 10.818286 -17.440512 139.999802
[Rope4_Seg06]
30 139.999924 0.000000 0.000060 -19.626284 23.446953 -14.445896 139.999924
31 139.999924 0.000000 0.000060 -19.178394 24.075920 -8.697800 139.999924
[Rope4_Seg07]
30 139.999802 0.000000 0.000000 -3.578742 13.374585 -2.580333 139.999802
31 139.999802 0.000000 0.000000 -3.398014 14.177550 -0.042086 139.999802
[Rope4_Seg08]
30 139.999924 0.000000 0.000119 -2.492508 6.714360 -0.877958 139.999924
31 139.999924 0.000000 0.000119 -2.479517 7.242937 0.419694 139.999924
[Rope4_Seg09]
30 90.185791 0.000060 0.000060 -135.617828 2.228885 0.850567 90.185791
31 90.185791 0.000060 0.000060 -135.617828 2.228885 0.850567 90.185791
[L_rear_hand01]
30 101.696655 -8.392275 -7.654577 -12.874829 -36.868488 107.832764 102.329041
31 101.696655 -8.392275 -7.654577 -12.874833 -36.868492 107.832779 102.329041
[L_rear_hand02]
30 102.726799 -1.568258 5.773216 71.484581 71.816628 158.486160 102.900848
31 102.726799 -1.568258 5.773216 71.484634 71.816643 158.486176 102.900848
[L_rear_hand03]
30 104.552910 9.721220 -10.420293 -177.714203 -24.565960 -106.089035 105.519653
31 104.552910 9.721220 -10.420293 -177.714203 -24.565968 -106.089043 105.519653
